<svg xmlns="http://www.w3.org/2000/svg" version="1.1" xmlns:xlink="http://www.w3.org/1999/xlink" xmlns:svgjs="http://svgjs.dev/svgjs" width="1440" height="560" preserveAspectRatio="none" viewBox="0 0 1440 560"><g mask="url(&quot;#SvgjsMask1034&quot;)" fill="none"><rect width="1440" height="560" x="0" y="0" fill="rgba(229, 229, 229, 1)"></rect><path d="M 0,150 C 96,132.4 288,60.4 480,62 C 672,63.6 768,158.6 960,158 C 1152,157.4 1344,78.8 1440,59L1440 560L0 560z" fill="rgba(208, 206, 206, 1)"></path><path d="M 0,282 C 57.6,273 172.8,219 288,237 C 403.2,255 460.8,381.6 576,372 C 691.2,362.4 748.8,194.8 864,189 C 979.2,183.2 1036.8,325.2 1152,343 C 1267.2,360.8 1382.4,291 1440,278L1440 560L0 560z" fill="rgba(197, 196, 196, 1)"></path><path d="M 0,387 C 96,419 288,538.4 480,547 C 672,555.6 768,427.4 960,430 C 1152,432.6 1344,534 1440,560L1440 560L0 560z" fill="rgba(203, 202, 202, 1)"></path></g><defs><mask id="SvgjsMask1034"><rect width="1440" height="560" fill="#ffffff"></rect></mask></defs></svg>